<svg width="129" height="152" viewBox="0 0 129 152" fill="none" xmlns="http://www.w3.org/2000/svg">
<path d="M51.2371 135.165C51.7609 135.408 52.2847 135.651 53.1152 136.007C53.422 136.12 53.6753 136.256 53.6753 136.256L53.9617 136.229C54.4154 136.378 54.869 136.527 55.6818 136.813C56.2803 136.977 56.5197 137.002 56.759 137.027C57.0701 137.105 57.3811 137.183 58.1739 137.382C78.6805 141.639 99.2583 132.474 109.277 114.68C116.156 102.464 117.817 89.6012 113.006 76.184C110.204 65.6341 101.062 54.741 90.0464 49.1371C82.81 61.6221 75.5585 74.1333 68.3359 86.5945C72.8695 90.984 73.1019 92.5889 70.0253 96.4526C68.5984 98.2447 66.9129 98.8268 64.8753 97.6601C56.7607 93.0138 48.647 88.3651 40.5793 83.6383C38.0875 82.1785 38.0004 79.9825 39.369 77.6659C40.72 75.3792 41.9244 72.7316 45.4421 74.0976C46.2936 74.4282 47.1241 74.8127 48.2396 75.2903C52.5311 67.8562 56.7918 60.4781 61.0498 53.0984C67.8538 41.3061 74.6995 29.5375 81.4364 17.707C83.9584 13.2781 87.2771 10.3828 92.6665 10.3374C93.4555 10.3308 94.4188 9.45759 94.979 8.73557C95.8907 7.56055 96.5397 6.18128 97.2939 4.88491C99.6727 0.795985 100.647 0.636116 104.531 3.3003C106.344 4.54428 106.547 5.95372 105.587 7.73309C105.148 8.54495 104.71 9.36664 104.175 10.115C102.364 12.6493 101.484 14.9922 103.181 18.238C104.87 21.4676 103.933 24.9943 102.087 28.1527C100.348 31.1278 98.6461 34.1246 96.9295 37.109C100.752 39.9431 104.725 42.3627 108.073 45.4572C126.748 62.72 133.373 83.9809 126.129 108.294C118.845 132.746 101.627 147.325 76.3123 151.051C55.0238 154.184 37.0376 146.898 22.3944 131.161C21.3125 129.999 19.3868 129.181 17.7784 129.036C14.2248 128.717 10.6225 128.977 7.04156 128.914C2.78581 128.839 -0.0783927 126.173 0.00163537 122.471C0.0802023 118.837 2.76851 116.373 6.96542 116.359C21.6398 116.312 36.3144 116.333 50.9889 116.339C56.0378 116.341 58.8586 118.574 58.8827 122.541C58.9066 126.472 56.1976 128.71 50.5186 128.95C46.8218 128.945 43.7274 128.945 40.633 128.945C40.5557 129.332 40.4783 129.719 40.401 130.106C44.0131 131.792 47.6251 133.479 51.2371 135.165Z" fill="#05AFF0"/>
<path d="M41.9493 11.8518C41.8528 10.1732 41.0827 9.46967 39.3238 9.61507C37.3955 9.77448 35.4324 9.76474 33.5039 9.59871C30.7139 9.35852 29.0666 7.68425 29.062 4.85791C29.0575 2.03904 30.6991 0.179252 33.4715 0.0959068C39.3756 -0.0815965 45.2887 0.0416613 51.5445 0.0416613C51.5445 5.14168 51.5436 9.95397 51.5447 14.7663C51.5468 23.302 51.486 31.8386 51.5989 40.3728C51.6266 42.467 51.1503 43.5455 49.0588 44.4445C24.8513 54.8492 13.4233 80.6928 21.7497 105.894C21.9237 106.421 22.0845 106.952 22.3375 107.753C18.3808 107.753 14.675 107.753 10.5919 107.753C7.79844 99.788 6.95692 91.3947 8.05282 82.8723C10.7764 61.6923 21.6358 46.0985 40.2136 35.9438C40.7126 35.671 41.1689 35.3187 41.9087 34.7592C42.2237 34.4426 42.3319 34.3231 42.3175 34.3053C42.2099 34.1731 42.0781 34.061 41.9538 33.9426C41.899 26.9984 41.8442 20.0543 42.0339 12.6876C42.2899 11.8421 42.3013 11.4191 42.3129 10.9961C42.1917 11.2813 42.0705 11.5666 41.9493 11.8518Z" fill="#313493"/>
<path d="M110.227 83.6695C111.737 91.5077 110.046 98.9088 107 105.984C100.84 120.291 88.6872 127.516 74.2304 131.812C72.6327 132.286 71.0828 132.202 71.3623 129.574C71.9507 129.041 72.486 128.778 73.4298 128.434C74.1993 128.166 74.5602 127.978 74.9212 127.79C74.9212 127.79 74.826 127.74 75.1216 127.769C77.6463 126.899 79.8753 126 82.1043 125.101C82.4255 125.015 82.7467 124.929 83.4369 124.665C85.4648 123.499 87.1237 122.511 88.7827 121.522C99.6431 115.042 105.188 105.275 106.931 93.2066C107.286 90.744 107.349 88.2394 107.511 85.752C107.613 84.1935 107.962 82.9772 110.227 83.6695Z" fill="#383996"/>
<path d="M60.9878 9.10587C58.8517 7.71721 58.5545 6.05033 60.4341 4.85256C61.3011 4.30003 63.3359 4.59001 64.4947 5.09005C65.107 5.35428 65.5202 7.37237 65.0664 7.74934C64.1254 8.53104 62.5455 8.74576 60.9878 9.10587Z" fill="#1EB3EE"/>
<path d="M43.5953 108.626C42.0255 108.999 40.5401 109.424 39.1928 109.215C38.6083 109.125 37.6958 107.413 38.0026 106.987C38.7074 106.007 40.0888 104.696 41.1606 104.718C43.7334 104.772 44.6199 106.311 43.5953 108.626Z" fill="#1CB3EE"/>
<path d="M53.1176 95.4265C52.7671 97.1284 52.544 98.8407 51.5208 100.007C51.1481 100.432 48.3196 99.9453 47.6144 99.1674C46.897 98.3762 46.8586 96.4054 47.5068 95.4971C48.8954 93.5511 51.0056 93.7261 53.1176 95.4265Z" fill="#16B2EE"/>
<path d="M59.1882 29.5378C60.613 28.5665 61.9011 27.5579 63.3145 27.3213C63.8612 27.2298 65.2234 28.8669 65.2571 29.7539C65.2981 30.832 64.5924 32.5628 63.7475 32.938C60.9566 34.1771 59.3869 32.799 59.1882 29.5378Z" fill="#3C3D95"/>
<path d="M54.6353 107.107C57.1543 105.557 59.2123 106.151 59.188 108.276C59.1791 109.059 58.6816 110.21 58.0659 110.515C57.3185 110.885 55.7782 110.904 55.3594 110.417C54.7271 109.68 54.7683 108.374 54.6353 107.107Z" fill="#383996"/>
<path d="M72.8471 18.5483C72.6028 20.0809 72.4538 21.597 71.677 22.6272C71.3939 23.0025 69.0707 22.5618 68.6567 21.8819C68.1254 21.0094 68.2156 18.6719 68.6834 18.4653C69.822 17.9625 71.3329 18.3253 72.8471 18.5483Z" fill="#19B2EE"/>
<path d="M37.9412 97.1294C37.9297 98.7283 37.995 100.282 37.3597 101.463C37.1469 101.859 34.7369 101.715 34.0782 101.066C33.4052 100.403 33.1976 97.9948 33.5753 97.7896C34.766 97.143 36.3268 97.1715 37.9412 97.1294Z" fill="#353792"/>
</svg>
